# xmcd
#
# Track frame offsets:
#	150
#	11125
#	24112
#	38960
#	52225
#	63700
#	80117
#	98067
#	113717
#	128545
#	141277
#	156792
#	169922
#	183115
#	197680
#
# Disc length: 2792 seconds
#
# Revision: 1
# Processed by: cddbd v1.4PL0 Copyright (c) Steve Scherf et al.
# Submitted via: CDmax 1.8
#
DISCID=ca0ae60f
DTITLE=Various Artist - Forever Country: Volume 3
DYEAR=1997
DGENRE=Country
TTITLE0=Roger Miller: King of the Road
TTITLE1=Lynne Anderson: Rose Garden
TTITLE2=George Jones: He Stopped Loving Her Today
TTITLE3=Mickey Gilley: True Love Ways
TTITLE4=Dolly Parton: Why'd You Come In Here Lookin' Like That
TTITLE5=Tammy Wynette/Mark Gray: Sometimes When We Touch
TTITLE6=Johnny Duncan: Slow Dancing
TTITLE7=Kris Kristofferson: Why Me?
TTITLE8=Rodney Crowell: I Couldn't Leave You If I Tried
TTITLE9=Carl Smith: Let Old Mother Nature Have Her Way
TTITLE10=Willie Nelson: Mamas Don't Let Your Babies Grow Up To Be Cowboys
TTITLE11=Lacy J Dalton: Dream Baby (How Long Must I Dream)
TTITLE12=Exile: It'll Be Me
TTITLE13=Merle Haggard/George Jones: Yesterday's Wine
TTITLE14=Johnny Cash: Ring Of Fire
EXTD=
EXTT0=
EXTT1=
EXTT2=
EXTT3=
EXTT4=
EXTT5=
EXTT6=
EXTT7=
EXTT8=
EXTT9=
EXTT10=
EXTT11=
EXTT12=
EXTT13=
EXTT14=
PLAYORDER=
